<svg width="20" height="21" viewBox="0 0 20 21" fill="none" xmlns="http://www.w3.org/2000/svg">
<path d="M15.8333 16.3333H4.16667V7.16668H15.8333V16.3333ZM13.3333 1.33334V3.00001H6.66667V1.33334H5V3.00001H4.16667C3.24167 3.00001 2.5 3.74168 2.5 4.66668V16.3333C2.5 16.7754 2.67559 17.1993 2.98816 17.5119C3.30072 17.8244 3.72464 18 4.16667 18H15.8333C16.2754 18 16.6993 17.8244 17.0118 17.5119C17.3244 17.1993 17.5 16.7754 17.5 16.3333V4.66668C17.5 3.74168 16.75 3.00001 15.8333 3.00001H15V1.33334H13.3333ZM14.1667 10.5H10V14.6667H14.1667V10.5Z" fill="#41BCC3"/>
</svg>
