<svg width="24" height="25" viewBox="0 0 24 25" fill="none" xmlns="http://www.w3.org/2000/svg">
<path d="M18.38 6.55599C17.68 6.55599 17.07 6.77212 16.47 6.97796C15.77 5.73263 14.46 4.90927 13.05 4.90927C11.95 4.90927 10.95 5.42387 10.24 6.14431C9.44 5.11511 8.23 4.38438 6.83 4.38438C4.5 4.38438 2.5 6.35015 2.5 8.74818C2.5 9.35541 2.71 9.97292 2.91 10.5904C1.8 11.2183 1 12.4533 1 13.8942C1 15.9526 2.61 17.7228 4.62 17.7228C4.92 17.7228 5.22 17.7228 5.42 17.6199C5.82 19.1739 7.33 20.3164 9.14 20.3164C10.84 20.3164 12.25 19.2769 12.75 17.8257C13.26 18.0418 13.76 18.2477 14.26 18.2477C15.57 18.2477 16.77 17.4964 17.37 16.3848C17.68 16.4672 18 16.4672 18.28 16.4672C20.89 16.4672 23 14.3161 23 11.527C23.1 8.74818 21 6.55599 18.38 6.55599Z" fill="#41BCC3"/>
</svg>
