<svg width="16" height="17" viewBox="0 0 16 17" fill="none" xmlns="http://www.w3.org/2000/svg">
<path d="M13.3333 2.90788H2.66659C1.93325 2.90788 1.33992 3.50788 1.33992 4.24121L1.33325 12.2412C1.33325 12.9745 1.93325 13.5745 2.66659 13.5745H13.3333C14.0666 13.5745 14.6666 12.9745 14.6666 12.2412V4.24121C14.6666 3.50788 14.0666 2.90788 13.3333 2.90788ZM13.0666 5.74121L8.35325 8.68788C8.13992 8.82121 7.85992 8.82121 7.64659 8.68788L2.93325 5.74121C2.76659 5.63454 2.66659 5.45454 2.66659 5.26121C2.66659 4.81454 3.15325 4.54788 3.53325 4.78121L7.99992 7.57454L12.4666 4.78121C12.8466 4.54788 13.3333 4.81454 13.3333 5.26121C13.3333 5.45454 13.2333 5.63454 13.0666 5.74121Z" fill="#08262E"/>
</svg>
