<svg width="16" height="16" viewBox="0 0 16 16" fill="none" xmlns="http://www.w3.org/2000/svg">
<path d="M11.3333 4.66667H9.33325C8.96659 4.66667 8.66659 4.96667 8.66659 5.33334C8.66659 5.70001 8.96659 6.00001 9.33325 6.00001H11.3333C12.4333 6.00001 13.3333 6.9 13.3333 8C13.3333 9.1 12.4333 10 11.3333 10H9.33325C8.96659 10 8.66659 10.3 8.66659 10.6667C8.66659 11.0333 8.96659 11.3333 9.33325 11.3333H11.3333C13.1733 11.3333 14.6666 9.84 14.6666 8C14.6666 6.16 13.1733 4.66667 11.3333 4.66667ZM5.33325 8C5.33325 8.36667 5.63325 8.66667 5.99992 8.66667H9.99992C10.3666 8.66667 10.6666 8.36667 10.6666 8C10.6666 7.63334 10.3666 7.33334 9.99992 7.33334H5.99992C5.63325 7.33334 5.33325 7.63334 5.33325 8ZM6.66659 10H4.66659C3.56659 10 2.66659 9.1 2.66659 8C2.66659 6.9 3.56659 6.00001 4.66659 6.00001H6.66659C7.03325 6.00001 7.33325 5.70001 7.33325 5.33334C7.33325 4.96667 7.03325 4.66667 6.66659 4.66667H4.66659C2.82659 4.66667 1.33325 6.16 1.33325 8C1.33325 9.84 2.82659 11.3333 4.66659 11.3333H6.66659C7.03325 11.3333 7.33325 11.0333 7.33325 10.6667C7.33325 10.3 7.03325 10 6.66659 10Z" fill="#08262E"/>
</svg>
