<svg width="24" height="25" viewBox="0 0 24 25" fill="none" xmlns="http://www.w3.org/2000/svg">
<path d="M19 3.08759C19.5304 3.08759 20.0391 3.30445 20.4142 3.69048C20.7893 4.0765 21 4.60006 21 5.14598V19.5547C21 20.1007 20.7893 20.6242 20.4142 21.0102C20.0391 21.3963 19.5304 21.6131 19 21.6131H5C4.46957 21.6131 3.96086 21.3963 3.58579 21.0102C3.21071 20.6242 3 20.1007 3 19.5547V5.14598C3 4.60006 3.21071 4.0765 3.58579 3.69048C3.96086 3.30445 4.46957 3.08759 5 3.08759H19ZM18.5 19.0401V13.5854C18.5 12.6955 18.1565 11.8421 17.5452 11.2129C16.9338 10.5837 16.1046 10.2302 15.24 10.2302C14.39 10.2302 13.4 10.7654 12.92 11.5682V10.4258H10.13V19.0401H12.92V13.9662C12.92 13.1737 13.54 12.5253 14.31 12.5253C14.6813 12.5253 15.0374 12.6771 15.2999 12.9473C15.5625 13.2176 15.71 13.5841 15.71 13.9662V19.0401H18.5ZM6.88 8.80992C7.32556 8.80992 7.75288 8.62775 8.06794 8.30349C8.383 7.97923 8.56 7.53944 8.56 7.08087C8.56 6.12372 7.81 5.34153 6.88 5.34153C6.43178 5.34153 6.00193 5.52478 5.68499 5.85097C5.36805 6.17716 5.19 6.61957 5.19 7.08087C5.19 8.03802 5.95 8.80992 6.88 8.80992ZM8.27 19.0401V10.4258H5.5V19.0401H8.27Z" fill="#41BCC3"/>
</svg>
