<svg width="18" height="18" viewBox="0 0 18 18" fill="none" xmlns="http://www.w3.org/2000/svg">
<path d="M10.56 6.3075L12.5025 8.25H5.25V9.75H12.5025L10.56 11.6925L11.625 12.75L15.375 9L11.625 5.25L10.56 6.3075ZM14.25 15.75C14.6478 15.75 15.0294 15.592 15.3107 15.3107C15.592 15.0294 15.75 14.6478 15.75 14.25V10.7475L14.25 12.2475V14.25H3.75V3.75H14.25V5.7525L15.75 7.2525V3.75C15.75 3.35218 15.592 2.97064 15.3107 2.68934C15.0294 2.40804 14.6478 2.25 14.25 2.25H3.75C2.9175 2.25 2.25 2.925 2.25 3.75V14.25C2.25 15.0825 2.9175 15.75 3.75 15.75H14.25Z" fill="white"/>
</svg>
