<svg width="22" height="24" viewBox="0 0 22 24" fill="none" xmlns="http://www.w3.org/2000/svg">
<path fill-rule="evenodd" clip-rule="evenodd" d="M10.806 23.1675C5.37643 23.1675 1.11366 19.5301 0.150661 14.2574C0.138677 14.1918 0.121856 14.0928 0.100197 13.9604L5.48026 13.9605C5.50384 14.0398 5.52191 14.099 5.53448 14.1379C6.33214 16.613 8.49868 17.8928 10.806 17.8928C13.1171 17.8928 15.2871 16.6355 16.0815 14.142C16.0942 14.1022 16.1124 14.0416 16.1363 13.9604H21.5118C21.4938 14.0711 21.4799 14.1539 21.4701 14.2088C20.5245 19.5077 16.2522 23.1675 10.806 23.1675ZM10.806 0.75C16.485 0.75 20.8876 4.6932 21.573 10.3882C21.5828 10.4698 21.5958 10.593 21.612 10.7579H16.3109C16.2956 10.6643 16.2837 10.5945 16.2751 10.5485C15.7133 7.54201 13.3449 6.02471 10.806 6.02471C8.29615 6.02471 5.95288 7.50751 5.3569 10.4459C5.34308 10.5141 5.32448 10.618 5.30111 10.7579H0C0.0234215 10.5265 0.0426861 10.3537 0.0577937 10.2396C0.801238 4.62472 5.17646 0.75 10.806 0.75Z" fill="url(#paint0_linear_2_1691)"/>
<defs>
<linearGradient id="paint0_linear_2_1691" x1="-5.10575e-07" y1="23.1675" x2="22.2296" y2="4.50334" gradientUnits="userSpaceOnUse">
<stop stop-color="#40E0CF"/>
<stop offset="0.715921" stop-color="#36CDCF"/>
</linearGradient>
</defs>
</svg>
