<svg width="20" height="21" viewBox="0 0 20 21" fill="none" xmlns="http://www.w3.org/2000/svg">
<path d="M14.1667 9.25V6.33333C14.1667 6.11232 14.0789 5.90036 13.9226 5.74408C13.7663 5.5878 13.5543 5.5 13.3333 5.5H3.33333C3.11232 5.5 2.90036 5.5878 2.74408 5.74408C2.5878 5.90036 2.5 6.11232 2.5 6.33333V14.6667C2.5 14.8877 2.5878 15.0996 2.74408 15.2559C2.90036 15.4122 3.11232 15.5 3.33333 15.5H13.3333C13.5543 15.5 13.7663 15.4122 13.9226 15.2559C14.0789 15.0996 14.1667 14.8877 14.1667 14.6667V11.75L17.5 15.0833V5.91667L14.1667 9.25Z" fill="#41BCC3"/>
</svg>
