<svg width="16" height="16" viewBox="0 0 16 16" fill="none" xmlns="http://www.w3.org/2000/svg">
<path d="M10.6667 7.33368C11.7734 7.33368 12.6601 6.44035 12.6601 5.33368C12.6601 4.22701 11.7734 3.33368 10.6667 3.33368C9.56008 3.33368 8.66675 4.22701 8.66675 5.33368C8.66675 6.44035 9.56008 7.33368 10.6667 7.33368ZM5.33341 7.33368C6.44008 7.33368 7.32675 6.44035 7.32675 5.33368C7.32675 4.22701 6.44008 3.33368 5.33341 3.33368C4.22675 3.33368 3.33341 4.22701 3.33341 5.33368C3.33341 6.44035 4.22675 7.33368 5.33341 7.33368ZM5.33341 8.66701C3.78008 8.66701 0.666748 9.44701 0.666748 11.0003V12.0003C0.666748 12.367 0.966748 12.667 1.33341 12.667H9.33341C9.70008 12.667 10.0001 12.367 10.0001 12.0003V11.0003C10.0001 9.44701 6.88675 8.66701 5.33341 8.66701ZM10.6667 8.66701C10.4734 8.66701 10.2534 8.68035 10.0201 8.70035C10.0334 8.70701 10.0401 8.72035 10.0467 8.72701C10.8067 9.28035 11.3334 10.0203 11.3334 11.0003V12.0003C11.3334 12.2337 11.2867 12.4603 11.2134 12.667H14.6667C15.0334 12.667 15.3334 12.367 15.3334 12.0003V11.0003C15.3334 9.44701 12.2201 8.66701 10.6667 8.66701Z" fill="#08464B"/>
</svg>
