<svg width="16" height="17" viewBox="0 0 16 17" fill="none" xmlns="http://www.w3.org/2000/svg">
<path d="M12.8144 10.4195L11.1211 10.2262C10.7144 10.1795 10.3144 10.3195 10.0277 10.6062L8.80108 11.8328C6.91441 10.8728 5.36774 9.33283 4.40775 7.4395L5.64108 6.20616C5.92775 5.9195 6.06774 5.5195 6.02108 5.11283L5.82774 3.43283C5.74774 2.7595 5.18108 2.25283 4.50108 2.25283H3.34775C2.59441 2.25283 1.96775 2.8795 2.01441 3.63283C2.36775 9.32616 6.92108 13.8728 12.6077 14.2262C13.3611 14.2728 13.9877 13.6462 13.9877 12.8928V11.7395C13.9944 11.0662 13.4877 10.4995 12.8144 10.4195Z" fill="#08262E"/>
</svg>
