<svg width="20" height="20" viewBox="0 0 20 20" fill="none" xmlns="http://www.w3.org/2000/svg">
<path d="M7.50053 11.25C9.34148 11.25 10.8339 9.75763 10.8339 7.91668C10.8339 6.07573 9.34148 4.58334 7.50053 4.58334C5.65958 4.58334 4.1672 6.07573 4.1672 7.91668C4.1672 9.75763 5.65958 11.25 7.50053 11.25Z" fill="#41BCC3"/>
<path d="M7.50053 12.9167C5.27553 12.9167 0.833862 14.0333 0.833862 16.25V17.9167H14.1672V16.25C14.1672 14.0333 9.72553 12.9167 7.50053 12.9167ZM13.9672 4.88334L12.5672 6.29168C13.2672 7.27501 13.2672 8.55001 12.5672 9.53334L13.9672 10.9417C15.6505 9.25834 15.6505 6.71668 13.9672 4.88334ZM16.7255 2.08334L15.3672 3.44168C17.6755 5.95834 17.6755 9.74168 15.3672 12.3917L16.7255 13.75C19.9755 10.5083 19.9839 5.45834 16.7255 2.08334Z" fill="#41BCC3"/>
</svg>
