<svg width="16" height="16" viewBox="0 0 16 16" fill="none" xmlns="http://www.w3.org/2000/svg">
<path d="M6.4375 2.375C7.51494 2.375 8.54825 2.80301 9.31012 3.56488C10.072 4.32675 10.5 5.36006 10.5 6.4375C10.5 7.44375 10.1312 8.36875 9.525 9.08125L9.69375 9.25H10.1875L13.3125 12.375L12.375 13.3125L9.25 10.1875V9.69375L9.08125 9.525C8.36875 10.1312 7.44375 10.5 6.4375 10.5C5.36006 10.5 4.32675 10.072 3.56488 9.31012C2.80301 8.54825 2.375 7.51494 2.375 6.4375C2.375 5.36006 2.80301 4.32675 3.56488 3.56488C4.32675 2.80301 5.36006 2.375 6.4375 2.375ZM6.4375 3.625C4.875 3.625 3.625 4.875 3.625 6.4375C3.625 8 4.875 9.25 6.4375 9.25C8 9.25 9.25 8 9.25 6.4375C9.25 4.875 8 3.625 6.4375 3.625Z" fill="#BFBFBF"/>
</svg>
