<svg width="16" height="16" viewBox="0 0 16 16" fill="none" xmlns="http://www.w3.org/2000/svg">
<path d="M8.56989 10.4467C8.66322 10.2067 8.60322 9.93333 8.41656 9.74666L7.02322 8.37333L7.04322 8.35333C8.20322 7.05999 9.02989 5.57333 9.51656 3.99999H10.8099C11.1699 3.99999 11.4699 3.7 11.4699 3.34V3.32666C11.4699 2.96666 11.1699 2.66666 10.8099 2.66666H6.80322V1.99999C6.80322 1.63333 6.50322 1.33333 6.13656 1.33333C5.76989 1.33333 5.46989 1.63333 5.46989 1.99999V2.66666H1.46322C1.10322 2.66666 0.803223 2.96666 0.803223 3.32666C0.803223 3.69333 1.10322 3.98666 1.46322 3.98666H8.24989C7.80322 5.27999 7.09656 6.5 6.13656 7.56666C5.59656 6.97333 5.14322 6.32666 4.76322 5.64666C4.65656 5.45333 4.46322 5.33333 4.24322 5.33333C3.78322 5.33333 3.48989 5.83333 3.71656 6.23333C4.13656 6.98666 4.64989 7.70666 5.24989 8.37333L2.33656 11.2467C2.06989 11.5067 2.06989 11.9333 2.33656 12.1933C2.59656 12.4533 3.01656 12.4533 3.28322 12.1933L6.13656 9.33333L7.48322 10.68C7.82322 11.02 8.40322 10.8933 8.56989 10.4467ZM11.8032 6.66666C11.4032 6.66666 11.0432 6.91333 10.9032 7.29333L8.45656 13.8267C8.29656 14.2333 8.60322 14.6667 9.03656 14.6667C9.29656 14.6667 9.52989 14.5067 9.62322 14.26L10.2166 12.6667H13.3832L13.9832 14.26C14.0766 14.5 14.3099 14.6667 14.5699 14.6667C15.0032 14.6667 15.3099 14.2333 15.1566 13.8267L12.7099 7.29333C12.5632 6.91333 12.2032 6.66666 11.8032 6.66666ZM10.7232 11.3333L11.8032 8.44666L12.8832 11.3333H10.7232Z" fill="#08262E"/>
</svg>
