<svg width="18" height="18" viewBox="0 0 18 18" fill="none" xmlns="http://www.w3.org/2000/svg">
<path d="M8.3925 0.949687L3.1425 3.28219C2.6025 3.52219 2.25 4.06219 2.25 4.65469V8.17969C2.25 12.3422 5.13 16.2347 9 17.1797C12.87 16.2347 15.75 12.3422 15.75 8.17969V4.65469C15.75 4.06219 15.3975 3.52219 14.8575 3.28219L9.6075 0.949687C9.225 0.777187 8.775 0.777187 8.3925 0.949687ZM6.9675 12.1472L5.025 10.2047C4.7325 9.91219 4.7325 9.43969 5.025 9.14719C5.3175 8.85469 5.79 8.85469 6.0825 9.14719L7.5 10.5572L11.91 6.14719C12.2025 5.85469 12.675 5.85469 12.9675 6.14719C13.26 6.43969 13.26 6.91219 12.9675 7.20469L8.025 12.1472C7.74 12.4397 7.26 12.4397 6.9675 12.1472Z" fill="#08464B"/>
</svg>
